<svg width="869" height="1328" viewBox="0 0 869 1328" fill="none" xmlns="http://www.w3.org/2000/svg">
<path d="M611.698 350.898L611.64 361.888L684.912 362.257C723.406 362.452 750.171 400.595 737.275 436.852L582.619 871.701L471.3 557.858L645.64 59.6371C655.424 31.6858 681.8 12.9544 711.424 12.9544H757.406V1.96456H500.632V12.9544H554.454C602.459 12.9544 636.09 60.3568 620.237 105.658L466.632 544.631L299.839 74.4394C288.868 43.4927 311.821 10.9899 344.654 10.9899H401.374V0H110.366V10.9899H178.97C199.101 10.9899 217.055 23.672 223.785 42.6563L434.421 636.654L352.357 871.195L187.159 405.4C179.767 384.548 195.231 362.666 217.347 362.666H291.008V351.676H0V362.666H84.5539C98.1114 362.666 110.21 371.205 114.742 384.004L324.483 975.492L325.145 975.278L329.268 963.627H329.346L336.757 942.503L357.161 884.792L357.044 884.481L439.109 649.939L550.135 963.044L554.551 975.512L555.115 975.317L555.212 975.278L568.186 938.632L759.702 400.109C767.657 377.74 788.878 362.841 812.628 362.958L868.414 363.23L868.472 352.24L611.698 350.937V350.898Z" fill="white"/>
<path d="M219.35 1204.94V1208.4H321.313V1168.39H317.87C317.87 1177.45 316.722 1184.44 314.427 1189.3C312.132 1194.18 309 1197.72 305.091 1199.96C301.162 1202.19 296.532 1203.48 291.183 1203.81C285.834 1204.14 280.038 1204.32 273.813 1204.32H254.109V1141.76H266.091C269.067 1141.76 271.713 1141.99 274.008 1142.48C276.303 1142.97 278.268 1143.98 279.902 1145.53C281.535 1147.09 282.78 1149.39 283.656 1152.44C284.531 1155.49 285.037 1159.58 285.173 1164.73H288.421V1113.56H285.173C285.037 1119.24 284.434 1123.67 283.344 1126.86C282.255 1130.05 280.641 1132.38 278.462 1133.86C276.303 1135.36 273.619 1136.24 270.448 1136.51C267.258 1136.78 263.582 1136.92 259.381 1136.92H254.109V1077.01H271.985C277.801 1077.01 283.267 1077.1 288.343 1077.32C293.42 1077.53 297.952 1078.54 301.959 1080.37C305.947 1082.2 309.331 1085.12 312.113 1089.11C314.894 1093.09 316.82 1098.83 317.909 1106.26H321.352L321.157 1072.96H182.238V1076.42H187.217C188.909 1076.42 190.543 1076.62 192.099 1077.03C193.655 1077.44 194.939 1078.08 195.951 1078.95C196.962 1079.83 197.468 1081.15 197.468 1082.92C197.468 1083.6 197.39 1084.44 197.273 1085.47C197.137 1086.48 196.806 1088.08 196.262 1090.23C195.717 1092.39 194.881 1095.35 193.714 1099.07C192.566 1102.8 190.971 1107.76 188.948 1113.98C186.925 1120.21 184.416 1127.87 181.44 1136.94C178.464 1146 174.807 1156.97 170.47 1169.85L142.246 1076.42H155.239V1072.96H105.27V1076.42H116.026L160.511 1213.73L200.327 1092.28C201.552 1088.48 202.564 1085.51 203.381 1083.35C204.198 1081.19 205.131 1079.59 206.221 1078.58C207.31 1077.57 208.73 1076.97 210.481 1076.75C212.231 1076.56 214.74 1076.44 217.989 1076.44H229.562V1205.02H219.409L219.35 1204.94Z" fill="white"/>
<path d="M332.691 1204.94V1208.4H432.826V1163.51H429.577C429.577 1173.39 428.799 1181.11 427.243 1186.65C425.687 1192.22 423.353 1196.34 420.241 1199.04C417.129 1201.75 413.238 1203.4 408.57 1204.02C403.902 1204.63 398.456 1204.94 392.212 1204.94H368.443V1076.37H382.661V1072.9H332.691V1076.37H345.49V1204.94H332.691Z" fill="white"/>
<path d="M601.194 1076.99C607.01 1076.99 612.456 1077.09 617.552 1077.3C622.629 1077.49 627.161 1078.52 631.168 1080.35C635.156 1082.18 638.54 1085.1 641.322 1089.09C644.103 1093.07 646.029 1098.81 647.118 1106.24H650.58L650.386 1072.94H511.466V1076.4H516.446C518.138 1076.4 519.772 1076.6 521.328 1077.01C522.884 1077.42 524.168 1078.06 525.179 1078.93C526.191 1079.81 526.696 1081.13 526.696 1082.9C526.696 1083.58 526.618 1084.42 526.502 1085.45C526.366 1086.46 526.035 1088.06 525.49 1090.21C524.946 1092.37 524.109 1095.33 522.942 1099.05C521.795 1102.78 520.2 1107.74 518.177 1113.96C516.154 1120.19 513.645 1127.85 510.669 1136.92C507.693 1145.98 504.036 1156.95 499.698 1169.83L471.475 1076.4H484.468V1072.94H434.498V1076.4H445.255L489.739 1213.71L529.556 1092.26C530.781 1088.46 531.792 1085.49 532.609 1083.33C533.426 1081.17 534.36 1079.58 535.449 1078.56C536.539 1077.55 537.958 1076.95 539.709 1076.74C541.46 1076.54 543.969 1076.42 547.217 1076.42H558.791V1205H548.637V1208.46H650.6V1168.45H647.138C647.138 1177.51 645.99 1184.49 643.675 1189.36C641.38 1194.24 638.248 1197.78 634.339 1200.02C630.41 1202.25 625.78 1203.54 620.431 1203.87C615.082 1204.2 609.286 1204.37 603.061 1204.37H583.357V1141.82H595.339C598.315 1141.82 600.961 1142.05 603.256 1142.54C605.551 1143.02 607.516 1144.04 609.15 1145.59C610.783 1147.15 612.028 1149.44 612.904 1152.5C613.779 1155.55 614.285 1159.64 614.421 1164.79H617.669V1113.61H614.421C614.285 1119.29 613.682 1123.73 612.592 1126.92C611.503 1130.11 609.889 1132.44 607.71 1133.92C605.551 1135.42 602.867 1136.29 599.696 1136.57C596.506 1136.84 592.83 1136.98 588.629 1136.98H583.357V1077.07H601.233L601.194 1076.99Z" fill="white"/>
<path d="M760.635 1072.92H660.092C659.82 1079.83 659.645 1086.6 659.587 1093.23C659.509 1099.86 659.353 1106.71 659.081 1113.75H662.738C662.738 1106.03 663.244 1099.77 664.255 1094.96C665.267 1090.16 667.037 1086.36 669.526 1083.58C672.035 1080.8 675.381 1078.91 679.583 1077.9C683.784 1076.89 689.133 1076.39 695.63 1076.39H698.47V1204.96H684.056V1208.42H736.244V1204.96H722.433V1076.39C729.611 1076.39 735.466 1076.75 739.998 1077.49C744.53 1078.23 748.128 1079.93 750.754 1082.57C753.38 1085.22 755.247 1089.01 756.337 1093.95C757.426 1098.89 757.951 1105.5 757.951 1113.75H761.199C761.063 1106.71 760.966 1099.88 760.888 1093.23C760.81 1086.6 760.713 1079.83 760.577 1072.92H760.635Z" fill="white"/>
<path d="M404.991 1235.65H413.608V1276.65H376.573V1235.65H385.462V1233.32H328.334V1235.63H330.863C331.816 1235.63 332.769 1235.75 333.742 1235.98C334.695 1236.21 335.512 1236.62 336.212 1237.21C336.893 1237.81 337.243 1238.65 337.243 1239.74C337.243 1240.38 337.01 1241.62 336.562 1243.49C336.115 1245.36 335.473 1247.63 334.656 1250.32C333.839 1253 332.925 1255.98 331.913 1259.21C330.902 1262.43 329.832 1265.74 328.704 1269.11C327.556 1272.47 326.448 1275.84 325.358 1279.16C324.269 1282.49 323.258 1285.52 322.344 1288.25C321.702 1290.15 320.962 1292.39 320.087 1294.94C319.212 1297.49 318.473 1299.68 317.831 1301.49L305.402 1257.34L307.58 1249.13C308.222 1246.58 308.864 1244.44 309.486 1242.71C310.128 1240.98 310.945 1239.6 311.957 1238.55C312.949 1237.5 314.31 1236.76 315.983 1236.29C317.675 1235.85 319.932 1235.61 322.752 1235.61V1233.3H246.212V1235.61H253.039L281.321 1327.73C281.769 1327.73 282.294 1327.71 282.897 1327.65C283.48 1327.62 284.064 1327.58 284.608 1327.58L297.31 1282.74L310.148 1327.58H312.326L337.749 1248.59L338.43 1246.54C339.344 1243.9 340.083 1241.84 340.686 1240.32C341.269 1238.82 342.009 1237.73 342.864 1237.03C343.72 1236.35 344.887 1235.94 346.346 1235.81C347.805 1235.67 349.906 1235.59 352.629 1235.59H359.592L360.273 1322.11H352.065V1324.43H385.404V1322.11H376.515V1279.34H413.55V1322.11H404.933V1324.43H438.272V1322.11H429.655V1235.59H438.272V1233.28H404.933V1235.61L404.991 1235.65ZM288.557 1303.01L268.328 1235.63H282.274L295.676 1279.09L288.576 1303.01H288.557ZM304.137 1253.95L298.944 1235.63H302.912C303.281 1235.63 303.748 1235.65 304.351 1235.71C304.935 1235.75 305.538 1235.88 306.121 1236.12C306.705 1236.35 307.211 1236.66 307.619 1237.07C308.028 1237.48 308.241 1238.1 308.241 1238.92C308.241 1239.29 308.047 1240.24 307.619 1241.8C307.211 1243.35 306.744 1244.99 306.257 1246.72C305.752 1248.45 305.304 1250.04 304.896 1251.5C304.487 1252.96 304.235 1253.78 304.137 1253.95Z" fill="white"/>
<path d="M445.312 1235.63H453.91V1322.15H445.312V1324.48H479.332V1322.15H469.49V1235.63H479.332V1233.32H445.312V1235.63Z" fill="white"/>
<path d="M486.861 1233.32V1235.63H493.552V1322.15H486.861V1324.46H517.477V1322.15H509.405V1279.24C510.144 1279.24 510.961 1279.22 511.856 1279.16C512.77 1279.12 513.587 1279.09 514.307 1279.09H518.139C520.317 1279.09 522.282 1279.26 524.013 1279.63C525.744 1280 527.242 1280.74 528.525 1281.89C529.809 1283.03 530.801 1284.67 531.54 1286.81C532.26 1288.95 532.669 1291.79 532.766 1295.35H534.944V1259.67H532.766C532.766 1263.95 532.377 1267.22 531.599 1269.44C530.821 1271.67 529.634 1273.31 528.039 1274.36C526.444 1275.41 524.46 1275.99 522.087 1276.13C519.714 1276.26 516.991 1276.34 513.879 1276.34H509.366V1235.61H522.223C525.861 1235.61 529.206 1235.73 532.26 1235.96C535.314 1236.2 537.959 1236.99 540.196 1238.35C542.433 1239.74 544.184 1241.89 545.467 1244.87C546.751 1247.85 547.471 1252.03 547.646 1257.42H550.097L549.961 1233.28H486.822L486.861 1233.32Z" fill="white"/>
<path d="M556.419 1233.32V1235.63H563.11V1322.15H556.419V1324.46H587.035V1322.15H578.963V1279.24C579.702 1279.24 580.519 1279.22 581.413 1279.16C582.328 1279.12 583.145 1279.09 583.864 1279.09H587.696C589.875 1279.09 591.839 1279.26 593.57 1279.63C595.302 1280 596.799 1280.74 598.083 1281.89C599.367 1283.03 600.359 1284.67 601.098 1286.81C601.818 1288.95 602.226 1291.79 602.323 1295.35H604.502V1259.67H602.323C602.323 1263.95 601.934 1267.22 601.156 1269.44C600.378 1271.67 599.192 1273.31 597.597 1274.36C596.002 1275.41 594.018 1275.99 591.645 1276.13C589.272 1276.26 586.549 1276.34 583.436 1276.34H578.924V1235.61H591.781C595.418 1235.61 598.764 1235.73 601.818 1235.96C604.871 1236.2 607.517 1236.99 609.754 1238.35C611.991 1239.74 613.741 1241.89 615.025 1244.87C616.309 1247.85 617.028 1252.03 617.203 1257.42H619.654L619.518 1233.28H556.38L556.419 1233.32Z" fill="white"/>
</svg>
